<svg width="53" height="49" viewBox="0 0 53 49" fill="none" xmlns="http://www.w3.org/2000/svg">
<path d="M26.5 0C11.872 0 0 10.976 0 24.5C0 38.024 11.872 49 26.5 49C41.128 49 53 38.024 53 24.5C53 10.976 41.128 0 26.5 0ZM38.796 16.66C38.3985 20.531 36.676 29.939 35.8015 34.2755C35.4305 36.113 34.6885 36.7255 33.9995 36.799C32.4625 36.9215 31.2965 35.868 29.8125 34.9615C27.4805 33.5405 26.1555 32.6585 23.903 31.2865C21.2795 29.694 22.9755 28.812 24.486 27.391C24.8835 27.0235 31.6675 21.315 31.8 20.8005C31.8184 20.7226 31.816 20.6417 31.7929 20.5648C31.7698 20.488 31.7267 20.4175 31.6675 20.3595C31.5085 20.237 31.2965 20.286 31.111 20.3105C30.8725 20.3595 27.1625 22.638 19.928 27.146C18.868 27.8075 17.914 28.1505 17.066 28.126C16.112 28.1015 14.31 27.636 12.9585 27.2195C11.289 26.7295 9.9905 26.46 10.0965 25.6025C10.1495 25.1615 10.812 24.7205 12.0575 24.255C19.7955 21.1435 24.9365 19.0855 27.507 18.1055C34.874 15.2635 36.3845 14.7735 37.3915 14.7735C37.6035 14.7735 38.107 14.8225 38.425 15.0675C38.69 15.2635 38.7695 15.533 38.796 15.729C38.7695 15.876 38.8225 16.317 38.796 16.66Z" fill="#FFA400"/>
</svg>
