<svg width="53" height="49" viewBox="0 0 53 49" fill="none" xmlns="http://www.w3.org/2000/svg">
<path d="M26.5 0C11.8658 0 0 10.9703 0 24.5C0 38.0297 11.8658 49 26.5 49C41.1342 49 53 38.0297 53 24.5C53 10.9703 41.1342 0 26.5 0ZM39.2354 18.468C39.2531 18.725 39.2531 18.993 39.2531 19.2555C39.2531 27.2836 32.64 36.5312 20.5552 36.5312C16.8287 36.5312 13.3742 35.5305 10.464 33.8078C10.9963 33.8625 11.505 33.8844 12.0492 33.8844C15.1251 33.8844 17.9526 32.9219 20.2063 31.2922C17.3196 31.2375 14.8944 29.4875 14.0663 27.0813C15.0778 27.218 15.9887 27.218 17.0298 26.9719C15.5435 26.6927 14.2075 25.9464 13.2489 24.8598C12.2903 23.7731 11.7682 22.4132 11.7712 21.0109V20.9344C12.6407 21.3883 13.6641 21.6672 14.7347 21.7055C13.8347 21.1509 13.0965 20.3996 12.5858 19.5181C12.075 18.6367 11.8074 17.6523 11.8067 16.6523C11.8067 15.5203 12.1261 14.4867 12.6999 13.5898C14.3496 15.4675 16.4083 17.0031 18.742 18.097C21.0758 19.1909 23.6324 19.8185 26.2456 19.9391C25.317 15.8102 28.6531 12.4688 32.6636 12.4688C34.5565 12.4688 36.26 13.2016 37.4608 14.3828C38.9455 14.1258 40.3652 13.6117 41.631 12.9227C41.1401 14.3281 40.1108 15.5148 38.7444 16.2641C40.0694 16.1328 41.3471 15.7938 42.5301 15.318C41.6369 16.532 40.519 17.6094 39.2354 18.468Z" fill="#FFA400"/>
</svg>
