<svg width="53" height="49" viewBox="0 0 53 49" fill="none" xmlns="http://www.w3.org/2000/svg">
<path d="M15.37 0H37.63C46.11 0 53 6.37 53 14.21V34.79C53 38.5587 51.3807 42.1731 48.4982 44.838C45.6158 47.5029 41.7064 49 37.63 49H15.37C6.89 49 0 42.63 0 34.79V14.21C0 10.4413 1.61934 6.8269 4.50177 4.16201C7.3842 1.49712 11.2936 0 15.37 0ZM14.84 4.9C12.3098 4.9 9.8833 5.82925 8.0942 7.48332C6.3051 9.13739 5.3 11.3808 5.3 13.72V35.28C5.3 40.1555 9.5665 44.1 14.84 44.1H38.16C40.6902 44.1 43.1167 43.1708 44.9058 41.5167C46.6949 39.8626 47.7 37.6192 47.7 35.28V13.72C47.7 8.8445 43.4335 4.9 38.16 4.9H14.84ZM40.4125 8.575C41.291 8.575 42.1336 8.89766 42.7548 9.47199C43.376 10.0463 43.725 10.8253 43.725 11.6375C43.725 12.4497 43.376 13.2287 42.7548 13.803C42.1336 14.3773 41.291 14.7 40.4125 14.7C39.534 14.7 38.6914 14.3773 38.0702 13.803C37.449 13.2287 37.1 12.4497 37.1 11.6375C37.1 10.8253 37.449 10.0463 38.0702 9.47199C38.6914 8.89766 39.534 8.575 40.4125 8.575ZM26.5 12.25C30.0141 12.25 33.3843 13.5406 35.8692 15.8379C38.354 18.1353 39.75 21.2511 39.75 24.5C39.75 27.7489 38.354 30.8647 35.8692 33.1621C33.3843 35.4594 30.0141 36.75 26.5 36.75C22.9859 36.75 19.6157 35.4594 17.1308 33.1621C14.646 30.8647 13.25 27.7489 13.25 24.5C13.25 21.2511 14.646 18.1353 17.1308 15.8379C19.6157 13.5406 22.9859 12.25 26.5 12.25ZM26.5 17.15C24.3915 17.15 22.3694 17.9244 20.8785 19.3028C19.3876 20.6812 18.55 22.5507 18.55 24.5C18.55 26.4493 19.3876 28.3188 20.8785 29.6972C22.3694 31.0756 24.3915 31.85 26.5 31.85C28.6085 31.85 30.6306 31.0756 32.1215 29.6972C33.6124 28.3188 34.45 26.4493 34.45 24.5C34.45 22.5507 33.6124 20.6812 32.1215 19.3028C30.6306 17.9244 28.6085 17.15 26.5 17.15Z" fill="#FFA400"/>
</svg>
